<svg width="22" height="17" viewBox="0 0 22 17" fill="none" xmlns="http://www.w3.org/2000/svg">
<path d="M6.768 0.328V10.672C6.768 11.376 6.896 11.856 7.152 12.112C7.424 12.368 7.872 12.496 8.496 12.496V13C8.176 12.984 7.704 12.968 7.08 12.952C6.472 12.92 5.84 12.904 5.184 12.904C4.368 12.904 3.576 12.92 2.808 12.952C2.056 12.968 1.472 12.984 1.056 13V12.496C1.776 12.496 2.328 12.368 2.712 12.112C3.112 11.84 3.312 11.312 3.312 10.528V4.672C3.312 3.904 3.248 3.336 3.12 2.968C2.992 2.6 2.752 2.36 2.4 2.248C2.048 2.136 1.568 2.08 0.96 2.08V1.552C2.336 1.52 3.472 1.416 4.368 1.24C5.28 1.064 6.08 0.759999 6.768 0.328ZM15.8595 0.256C17.6035 0.256 18.9795 0.832 19.9875 1.984C20.9955 3.136 21.4995 4.768 21.4995 6.88C21.4995 8.16 21.2915 9.312 20.8755 10.336C20.4755 11.344 19.9315 12.224 19.2435 12.976C18.5715 13.712 17.8195 14.328 16.9875 14.824C16.1715 15.336 15.3315 15.736 14.4675 16.024C13.6195 16.328 12.8195 16.536 12.0675 16.648L11.9715 16.168C12.6755 15.96 13.3715 15.68 14.0595 15.328C14.7635 14.976 15.3955 14.464 15.9555 13.792C16.5315 13.136 16.9955 12.24 17.3475 11.104C17.6995 9.968 17.8755 8.52 17.8755 6.76C17.8755 5.208 17.7555 4 17.5155 3.136C17.2915 2.256 17.0035 1.64 16.6515 1.288C16.3155 0.919999 15.9635 0.735999 15.5955 0.735999C15.2435 0.735999 14.9075 0.903999 14.5875 1.24C14.2675 1.56 14.0035 2.088 13.7955 2.824C13.6035 3.56 13.5075 4.536 13.5075 5.752C13.5075 6.888 13.5955 7.808 13.7715 8.512C13.9635 9.2 14.2115 9.696 14.5155 10C14.8355 10.304 15.1795 10.456 15.5475 10.456C15.8195 10.456 16.1235 10.376 16.4595 10.216C16.7955 10.056 17.1075 9.792 17.3955 9.424C17.6835 9.056 17.8915 8.568 18.0195 7.96L18.2355 8.056C18.1395 8.824 17.8995 9.432 17.5155 9.88C17.1475 10.328 16.6995 10.656 16.1715 10.864C15.6435 11.056 15.1155 11.152 14.5875 11.152C13.7395 11.152 12.9555 10.944 12.2355 10.528C11.5315 10.112 10.9635 9.52 10.5315 8.752C10.0995 7.968 9.8835 7.032 9.8835 5.944C9.8835 4.712 10.1555 3.672 10.6995 2.824C11.2595 1.976 11.9875 1.336 12.8835 0.904C13.7955 0.472 14.7875 0.256 15.8595 0.256Z" fill="#FF0000"/>
</svg>
